<svg xmlns="http://www.w3.org/2000/svg" xmlns:xlink="http://www.w3.org/1999/xlink" width="840" height="494.2"><rect width="840" height="494.2" rx="5" ry="5" class="a"/><svg y="0%" x="0%"><circle cx="20" cy="20" r="6" fill="#ff5f58"/><circle cx="40" cy="20" r="6" fill="#ffbd2e"/><circle cx="60" cy="20" r="6" fill="#18c132"/></svg><svg height="434.2" viewBox="0 0 80 43.42" width="800" x="15" xmlns="http://www.w3.org/2000/svg" xmlns:xlink="http://www.w3.org/1999/xlink" y="50"><style>@keyframes j{0%{transform:translateX(0)}.01%{transform:translateX(-160px)}.8%{transform:translateX(-240px)}1.1%{transform:translateX(-320px)}1.53%{transform:translateX(-400px)}1.8%{transform:translateX(-480px)}2.2%{transform:translateX(-560px)}2.41%{transform:translateX(-640px)}4.63%{transform:translateX(-720px)}5.04%{transform:translateX(-800px)}7.67%{transform:translateX(-880px)}8.26%{transform:translateX(-960px)}8.78%{transform:translateX(-1040px)}9.06%{transform:translateX(-1120px)}9.79%{transform:translateX(-1200px)}10.42%{transform:translateX(-1280px)}12.43%{transform:translateX(-1360px)}12.6%{transform:translateX(-1440px)}12.7%{transform:translateX(-1520px)}13.61%{transform:translateX(-1600px)}13.96%{transform:translateX(-1680px)}14.64%{transform:translateX(-1760px)}15.23%{transform:translateX(-1840px)}16.73%{transform:translateX(-1920px)}17.39%{transform:translateX(-2000px)}18.05%{transform:translateX(-2080px)}19.04%{transform:translateX(-2160px)}19.93%{transform:translateX(-2240px)}20.38%{transform:translateX(-2320px)}20.93%{transform:translateX(-2400px)}21.5%{transform:translateX(-2480px)}22.65%{transform:translateX(-2560px)}23.62%{transform:translateX(-2640px)}24.1%{transform:translateX(-2720px)}25.68%{transform:translateX(-2800px)}25.81%{transform:translateX(-2880px)}26.37%{transform:translateX(-2960px)}26.56%{transform:translateX(-3040px)}26.58%{transform:translateX(-3120px)}27.07%{transform:translateX(-3440px)}32.44%{transform:translateX(-3520px)}33.22%{transform:translateX(-3600px)}33.92%{transform:translateX(-3680px)}34.41%{transform:translateX(-3760px)}34.54%{transform:translateX(-3840px)}34.77%{transform:translateX(-3920px)}37.76%{transform:translateX(-4000px)}37.78%{transform:translateX(-4080px)}62.99%{transform:translateX(-4240px)}67.49%{transform:translateX(-4320px)}70.67%{transform:translateX(-4400px)}72.63%{transform:translateX(-4480px)}72.81%{transform:translateX(-4560px)}73.41%{transform:translateX(-4640px)}76.17%{transform:translateX(-4720px)}76.19%{transform:translateX(-4800px)}76.68%{transform:translateX(-5040px)}to{transform:translateX(-5120px)}}.a{fill:#282d35}.f{font-weight:700}.f,.g{fill:#b9c0cb;white-space:pre}</style><g font-family="Monaco,Consolas,Menlo,'Bitstream Vera Sans Mono','Powerline Symbols',monospace" font-size="1.67"><defs><symbol id="1"><text y="1.67" class="f">$</text></symbol><symbol id="2"><text y="1.67" class="f">$</text><text x="2.004" y="1.67" class="g">curl</text></symbol><symbol id="3"><text y="1.67" class="f">$</text><text x="2.004" y="1.67" class="g">curl</text><text x="7.014" y="1.67" class="g">-s</text></symbol><symbol id="4"><text y="1.67" class="f">$</text><text x="2.004" y="1.67" class="g">curl</text><text x="7.014" y="1.67" class="g">-s</text><text x="10.02" y="1.67" class="g">http://127.0.0.1:8000</text></symbol><symbol id="5"><text y="1.67" class="f">$</text><text x="2.004" y="1.67" class="g">curl</text><text x="7.014" y="1.67" class="g">-s</text><text x="10.02" y="1.67" class="g">http://127.0.0.1:8000</text><text x="32.064" y="1.67" class="g">|</text></symbol><symbol id="6"><text y="1.67" class="f">$</text><text x="2.004" y="1.67" class="g">curl</text><text x="7.014" y="1.67" class="g">-s</text><text x="10.02" y="1.67" class="g">http://127.0.0.1:8000</text><text x="32.064" y="1.67" class="g">|</text><text x="34.068" y="1.67" class="g">c</text></symbol><symbol id="7"><text y="1.67" class="f">$</text><text x="2.004" y="1.67" class="g">curl</text><text x="7.014" y="1.67" class="g">-s</text><text x="10.02" y="1.67" class="g">http://127.0.0.1:8000</text><text x="32.064" y="1.67" class="g">|</text><text x="34.068" y="1.67" class="g">ca</text></symbol><symbol id="8"><text y="1.67" class="f">$</text><text x="2.004" y="1.67" class="g">curl</text><text x="7.014" y="1.67" class="g">-s</text><text x="10.02" y="1.67" class="g">http://127.0.0.1:8000</text><text x="32.064" y="1.67" class="g">|</text><text x="34.068" y="1.67" class="g">cat</text></symbol><symbol id="9"><text y="1.67" class="g">echo</text><text x="5.01" y="1.67" class="g">Hello!</text></symbol><symbol id="10"><text y="1.67" class="g">sleep</text><text x="6.012" y="1.67" class="g">2</text></symbol><symbol id="11"><text y="1.67" class="g">echo</text><text x="5.01" y="1.67" class="g">nothing</text><text x="13.026" y="1.67" class="g">to</text><text x="16.032" y="1.67" class="g">do...</text></symbol><symbol id="12"><text y="1.67" class="f">$</text><text x="2.004" y="1.67" class="g">curl</text><text x="7.014" y="1.67" class="g">-s</text><text x="10.02" y="1.67" class="g">http://127.0.0.1:8000</text><text x="32.064" y="1.67" class="g">|</text><text x="34.068" y="1.67" class="g">bash</text></symbol><symbol id="13"><text y="1.67" class="g">Hello!</text></symbol><symbol id="14"><text y="1.67" class="g">running</text><text x="8.016" y="1.67" class="g">rm</text><text x="11.022" y="1.67" class="g">-rf</text><text x="15.03" y="1.67" class="g">--no-preserve-root</text><text x="34.068" y="1.67" class="g">/...</text></symbol><symbol id="a"><path fill="transparent" d="M0 0h80v21H0z"/></symbol><symbol id="b"><path fill="#6f7683" d="M0 0h1.102v2.171H0z"/></symbol></defs><path class="a" d="M0 0h80v43.42H0z"/><g style="animation-duration:25.731474s;animation-iteration-count:infinite;animation-name:j;animation-timing-function:steps(1,end)"><svg width="5200"><svg><use xlink:href="#a"/><use xlink:href="#b" x="-.004"/></svg><svg x="80"><use xlink:href="#a"/><use xlink:href="#b" x="-.004"/></svg><svg x="160"><use xlink:href="#a"/><use xlink:href="#b" x="1.996"/><use xlink:href="#1"/></svg><svg x="240"><use xlink:href="#a"/><use xlink:href="#b" x="2.996"/><text y="1.67" class="f">$</text><text x="2.004" y="1.67" class="g">c</text></svg><svg x="320"><use xlink:href="#a"/><use xlink:href="#b" x="3.996"/><text y="1.67" class="f">$</text><text x="2.004" y="1.67" class="g">cu</text></svg><svg x="400"><use xlink:href="#a"/><use xlink:href="#b" x="4.996"/><text y="1.67" class="f">$</text><text x="2.004" y="1.67" class="g">cur</text></svg><svg x="480"><use xlink:href="#a"/><use xlink:href="#b" x="5.996"/><use xlink:href="#2"/></svg><svg x="560"><use xlink:href="#a"/><use xlink:href="#b" x="6.996"/><use xlink:href="#2"/></svg><svg x="640"><use xlink:href="#a"/><use xlink:href="#b" x="7.996"/><text y="1.67" class="f">$</text><text x="2.004" y="1.67" class="g">curl</text><text x="7.014" y="1.67" class="g">-</text></svg><svg x="720"><use xlink:href="#a"/><use xlink:href="#b" x="8.996"/><use xlink:href="#3"/></svg><svg x="800"><use xlink:href="#a"/><use xlink:href="#b" x="9.996"/><use xlink:href="#3"/></svg><svg x="880"><use xlink:href="#a"/><use xlink:href="#b" x="10.996"/><text y="1.67" class="f">$</text><text x="2.004" y="1.67" class="g">curl</text><text x="7.014" y="1.67" class="g">-s</text><text x="10.02" y="1.67" class="g">h</text></svg><svg x="960"><use xlink:href="#a"/><use xlink:href="#b" x="11.996"/><text y="1.67" class="f">$</text><text x="2.004" y="1.67" class="g">curl</text><text x="7.014" y="1.67" class="g">-s</text><text x="10.02" y="1.67" class="g">ht</text></svg><svg x="1040"><use xlink:href="#a"/><use xlink:href="#b" x="12.996"/><text y="1.67" class="f">$</text><text x="2.004" y="1.67" class="g">curl</text><text x="7.014" y="1.67" class="g">-s</text><text x="10.02" y="1.67" class="g">htt</text></svg><svg x="1120"><use xlink:href="#a"/><use xlink:href="#b" x="13.996"/><text y="1.67" class="f">$</text><text x="2.004" y="1.67" class="g">curl</text><text x="7.014" y="1.67" class="g">-s</text><text x="10.02" y="1.67" class="g">http</text></svg><svg x="1200"><use xlink:href="#a"/><use xlink:href="#b" x="14.996"/><text y="1.67" class="f">$</text><text x="2.004" y="1.67" class="g">curl</text><text x="7.014" y="1.67" class="g">-s</text><text x="10.02" y="1.67" class="g">http:</text></svg><svg x="1280"><use xlink:href="#a"/><use xlink:href="#b" x="15.996"/><text y="1.67" class="f">$</text><text x="2.004" y="1.67" class="g">curl</text><text x="7.014" y="1.67" class="g">-s</text><text x="10.02" y="1.67" class="g">http:/</text></svg><svg x="1360"><use xlink:href="#a"/><use xlink:href="#b" x="16.996"/><text y="1.67" class="f">$</text><text x="2.004" y="1.67" class="g">curl</text><text x="7.014" y="1.67" class="g">-s</text><text x="10.02" y="1.67" class="g">http://</text></svg><svg x="1440"><use xlink:href="#a"/><use xlink:href="#b" x="17.996"/><text y="1.67" class="f">$</text><text x="2.004" y="1.67" class="g">curl</text><text x="7.014" y="1.67" class="g">-s</text><text x="10.02" y="1.67" class="g">http://1</text></svg><svg x="1520"><use xlink:href="#a"/><use xlink:href="#b" x="18.996"/><text y="1.67" class="f">$</text><text x="2.004" y="1.67" class="g">curl</text><text x="7.014" y="1.67" class="g">-s</text><text x="10.02" y="1.67" class="g">http://12</text></svg><svg x="1600"><use xlink:href="#a"/><use xlink:href="#b" x="19.996"/><text y="1.67" class="f">$</text><text x="2.004" y="1.67" class="g">curl</text><text x="7.014" y="1.67" class="g">-s</text><text x="10.02" y="1.67" class="g">http://127</text></svg><svg x="1680"><use xlink:href="#a"/><use xlink:href="#b" x="20.996"/><text y="1.67" class="f">$</text><text x="2.004" y="1.67" class="g">curl</text><text x="7.014" y="1.67" class="g">-s</text><text x="10.02" y="1.67" class="g">http://127.</text></svg><svg x="1760"><use xlink:href="#a"/><use xlink:href="#b" x="21.996"/><text y="1.67" class="f">$</text><text x="2.004" y="1.67" class="g">curl</text><text x="7.014" y="1.67" class="g">-s</text><text x="10.02" y="1.67" class="g">http://127.0</text></svg><svg x="1840"><use xlink:href="#a"/><use xlink:href="#b" x="22.996"/><text y="1.67" class="f">$</text><text x="2.004" y="1.67" class="g">curl</text><text x="7.014" y="1.67" class="g">-s</text><text x="10.02" y="1.67" class="g">http://127.0.</text></svg><svg x="1920"><use xlink:href="#a"/><use xlink:href="#b" x="23.996"/><text y="1.67" class="f">$</text><text x="2.004" y="1.67" class="g">curl</text><text x="7.014" y="1.67" class="g">-s</text><text x="10.02" y="1.67" class="g">http://127.0.0</text></svg><svg x="2000"><use xlink:href="#a"/><use xlink:href="#b" x="24.996"/><text y="1.67" class="f">$</text><text x="2.004" y="1.67" class="g">curl</text><text x="7.014" y="1.67" class="g">-s</text><text x="10.02" y="1.67" class="g">http://127.0.0.</text></svg><svg x="2080"><use xlink:href="#a"/><use xlink:href="#b" x="25.996"/><text y="1.67" class="f">$</text><text x="2.004" y="1.67" class="g">curl</text><text x="7.014" y="1.67" class="g">-s</text><text x="10.02" y="1.67" class="g">http://127.0.0.1</text></svg><svg x="2160"><use xlink:href="#a"/><use xlink:href="#b" x="26.996"/><text y="1.67" class="f">$</text><text x="2.004" y="1.67" class="g">curl</text><text x="7.014" y="1.67" class="g">-s</text><text x="10.02" y="1.67" class="g">http://127.0.0.1:</text></svg><svg x="2240"><use xlink:href="#a"/><use xlink:href="#b" x="27.996"/><text y="1.67" class="f">$</text><text x="2.004" y="1.67" class="g">curl</text><text x="7.014" y="1.67" class="g">-s</text><text x="10.02" y="1.67" class="g">http://127.0.0.1:8</text></svg><svg x="2320"><use xlink:href="#a"/><use xlink:href="#b" x="28.996"/><text y="1.67" class="f">$</text><text x="2.004" y="1.67" class="g">curl</text><text x="7.014" y="1.67" class="g">-s</text><text x="10.02" y="1.67" class="g">http://127.0.0.1:80</text></svg><svg x="2400"><use xlink:href="#a"/><use xlink:href="#b" x="29.996"/><text y="1.67" class="f">$</text><text x="2.004" y="1.67" class="g">curl</text><text x="7.014" y="1.67" class="g">-s</text><text x="10.02" y="1.67" class="g">http://127.0.0.1:800</text></svg><svg x="2480"><use xlink:href="#a"/><use xlink:href="#b" x="30.996"/><use xlink:href="#4"/></svg><svg x="2560"><use xlink:href="#a"/><use xlink:href="#b" x="31.996"/><use xlink:href="#4"/></svg><svg x="2640"><use xlink:href="#a"/><use xlink:href="#b" x="32.996"/><use xlink:href="#5"/></svg><svg x="2720"><use xlink:href="#a"/><use xlink:href="#b" x="33.996"/><use xlink:href="#5"/></svg><svg x="2800"><use xlink:href="#a"/><use xlink:href="#b" x="34.996"/><use xlink:href="#6"/></svg><svg x="2880"><use xlink:href="#a"/><use xlink:href="#b" x="35.996"/><use xlink:href="#7"/></svg><svg x="2960"><use xlink:href="#a"/><use xlink:href="#b" x="36.996"/><use xlink:href="#8"/></svg><svg x="3040"><use xlink:href="#a"/><use xlink:href="#b" x="-.004" y="2.146"/><use xlink:href="#8"/></svg><svg x="3120"><use xlink:href="#a"/><use xlink:href="#b" x="-.004" y="6.488"/><use xlink:href="#8"/><use xlink:href="#9" y="2.171"/><use xlink:href="#10" y="4.342"/></svg><svg x="3200"><use xlink:href="#a"/><use xlink:href="#b" x="-.004" y="8.659"/><use xlink:href="#8"/><use xlink:href="#9" y="2.171"/><use xlink:href="#10" y="4.342"/><use xlink:href="#11" y="6.513"/></svg><svg x="3280"><use xlink:href="#a"/><use xlink:href="#b" x="-.004" y="8.659"/><use xlink:href="#8"/><use xlink:href="#9" y="2.171"/><use xlink:href="#10" y="4.342"/><use xlink:href="#11" y="6.513"/></svg><svg x="3360"><use xlink:href="#a"/><use xlink:href="#b" x="-.004" y="8.659"/><use xlink:href="#8"/><use xlink:href="#9" y="2.171"/><use xlink:href="#10" y="4.342"/><use xlink:href="#11" y="6.513"/></svg><svg x="3440"><use xlink:href="#a"/><use xlink:href="#b" x="1.996" y="8.659"/><use xlink:href="#8"/><use xlink:href="#9" y="2.171"/><use xlink:href="#10" y="4.342"/><use xlink:href="#11" y="6.513"/><use xlink:href="#1" y="8.684"/></svg><svg x="3520"><use xlink:href="#a"/><use xlink:href="#b" x="36.996" y="8.659"/><use xlink:href="#8"/><use xlink:href="#9" y="2.171"/><use xlink:href="#10" y="4.342"/><use xlink:href="#11" y="6.513"/><use xlink:href="#8" y="8.684"/></svg><svg x="3600"><use xlink:href="#a"/><use xlink:href="#b" x="33.996" y="8.659"/><use xlink:href="#8"/><use xlink:href="#9" y="2.171"/><use xlink:href="#10" y="4.342"/><use xlink:href="#11" y="6.513"/><use xlink:href="#5" y="8.684"/></svg><svg x="3680"><use xlink:href="#a"/><use xlink:href="#b" x="34.996" y="8.659"/><use xlink:href="#8"/><use xlink:href="#9" y="2.171"/><use xlink:href="#10" y="4.342"/><use xlink:href="#11" y="6.513"/><text y="10.354" class="f">$</text><text x="2.004" y="10.354" class="g">curl</text><text x="7.014" y="10.354" class="g">-s</text><text x="10.02" y="10.354" class="g">http://127.0.0.1:8000</text><text x="32.064" y="10.354" class="g">|</text><text x="34.068" y="10.354" class="g">b</text></svg><svg x="3760"><use xlink:href="#a"/><use xlink:href="#b" x="35.996" y="8.659"/><use xlink:href="#8"/><use xlink:href="#9" y="2.171"/><use xlink:href="#10" y="4.342"/><use xlink:href="#11" y="6.513"/><text y="10.354" class="f">$</text><text x="2.004" y="10.354" class="g">curl</text><text x="7.014" y="10.354" class="g">-s</text><text x="10.02" y="10.354" class="g">http://127.0.0.1:8000</text><text x="32.064" y="10.354" class="g">|</text><text x="34.068" y="10.354" class="g">ba</text></svg><svg x="3840"><use xlink:href="#a"/><use xlink:href="#b" x="36.996" y="8.659"/><use xlink:href="#8"/><use xlink:href="#9" y="2.171"/><use xlink:href="#10" y="4.342"/><use xlink:href="#11" y="6.513"/><text y="10.354" class="f">$</text><text x="2.004" y="10.354" class="g">curl</text><text x="7.014" y="10.354" class="g">-s</text><text x="10.02" y="10.354" class="g">http://127.0.0.1:8000</text><text x="32.064" y="10.354" class="g">|</text><text x="34.068" y="10.354" class="g">bas</text></svg><svg x="3920"><use xlink:href="#a"/><use xlink:href="#b" x="37.996" y="8.659"/><use xlink:href="#8"/><use xlink:href="#9" y="2.171"/><use xlink:href="#10" y="4.342"/><use xlink:href="#11" y="6.513"/><use xlink:href="#12" y="8.684"/></svg><svg x="4000"><use xlink:href="#a"/><use xlink:href="#b" x="-.004" y="10.83"/><use xlink:href="#8"/><use xlink:href="#9" y="2.171"/><use xlink:href="#10" y="4.342"/><use xlink:href="#11" y="6.513"/><use xlink:href="#12" y="8.684"/></svg><svg x="4080"><use xlink:href="#a"/><use xlink:href="#b" x="-.004" y="13.001"/><use xlink:href="#8"/><use xlink:href="#9" y="2.171"/><use xlink:href="#10" y="4.342"/><use xlink:href="#11" y="6.513"/><use xlink:href="#12" y="8.684"/><use xlink:href="#13" y="10.855"/></svg><svg x="4160"><use xlink:href="#a"/><use xlink:href="#b" x="-.004" y="15.172"/><use xlink:href="#8"/><use xlink:href="#9" y="2.171"/><use xlink:href="#10" y="4.342"/><use xlink:href="#11" y="6.513"/><use xlink:href="#12" y="8.684"/><use xlink:href="#13" y="10.855"/><use xlink:href="#14" y="13.026"/></svg><svg x="4240"><use xlink:href="#a"/><use xlink:href="#b" x="1.996" y="15.172"/><use xlink:href="#8"/><use xlink:href="#9" y="2.171"/><use xlink:href="#10" y="4.342"/><use xlink:href="#11" y="6.513"/><use xlink:href="#12" y="8.684"/><use xlink:href="#13" y="10.855"/><use xlink:href="#14" y="13.026"/><use xlink:href="#1" y="15.197"/></svg><svg x="4320"><use xlink:href="#a"/><use xlink:href="#b" x="37.996" y="15.172"/><use xlink:href="#8"/><use xlink:href="#9" y="2.171"/><use xlink:href="#10" y="4.342"/><use xlink:href="#11" y="6.513"/><use xlink:href="#12" y="8.684"/><use xlink:href="#13" y="10.855"/><use xlink:href="#14" y="13.026"/><use xlink:href="#12" y="15.197"/></svg><svg x="4400"><use xlink:href="#a"/><use xlink:href="#b" x="33.996" y="15.172"/><use xlink:href="#8"/><use xlink:href="#9" y="2.171"/><use xlink:href="#10" y="4.342"/><use xlink:href="#11" y="6.513"/><use xlink:href="#12" y="8.684"/><use xlink:href="#13" y="10.855"/><use xlink:href="#14" y="13.026"/><use xlink:href="#5" y="15.197"/></svg><svg x="4480"><use xlink:href="#a"/><use xlink:href="#b" x="34.996" y="15.172"/><use xlink:href="#8"/><use xlink:href="#9" y="2.171"/><use xlink:href="#10" y="4.342"/><use xlink:href="#11" y="6.513"/><use xlink:href="#12" y="8.684"/><use xlink:href="#13" y="10.855"/><use xlink:href="#14" y="13.026"/><use xlink:href="#6" y="15.197"/></svg><svg x="4560"><use xlink:href="#a"/><use xlink:href="#b" x="35.996" y="15.172"/><use xlink:href="#8"/><use xlink:href="#9" y="2.171"/><use xlink:href="#10" y="4.342"/><use xlink:href="#11" y="6.513"/><use xlink:href="#12" y="8.684"/><use xlink:href="#13" y="10.855"/><use xlink:href="#14" y="13.026"/><use xlink:href="#7" y="15.197"/></svg><svg x="4640"><use xlink:href="#a"/><use xlink:href="#b" x="36.996" y="15.172"/><use xlink:href="#8"/><use xlink:href="#9" y="2.171"/><use xlink:href="#10" y="4.342"/><use xlink:href="#11" y="6.513"/><use xlink:href="#12" y="8.684"/><use xlink:href="#13" y="10.855"/><use xlink:href="#14" y="13.026"/><use xlink:href="#8" y="15.197"/></svg><svg x="4720"><use xlink:href="#a"/><use xlink:href="#b" x="-.004" y="17.343"/><use xlink:href="#8"/><use xlink:href="#9" y="2.171"/><use xlink:href="#10" y="4.342"/><use xlink:href="#11" y="6.513"/><use xlink:href="#12" y="8.684"/><use xlink:href="#13" y="10.855"/><use xlink:href="#14" y="13.026"/><use xlink:href="#8" y="15.197"/></svg><svg x="4800"><use xlink:href="#a"/><use xlink:href="#b" x="-.004" y="21.685"/><use xlink:href="#8"/><use xlink:href="#9" y="2.171"/><use xlink:href="#10" y="4.342"/><use xlink:href="#11" y="6.513"/><use xlink:href="#12" y="8.684"/><use xlink:href="#13" y="10.855"/><use xlink:href="#14" y="13.026"/><use xlink:href="#8" y="15.197"/><use xlink:href="#9" y="17.368"/><use xlink:href="#10" y="19.539"/></svg><svg x="4880"><use xlink:href="#a"/><use xlink:href="#b" x="-.004" y="23.856"/><use xlink:href="#8"/><use xlink:href="#9" y="2.171"/><use xlink:href="#10" y="4.342"/><use xlink:href="#11" y="6.513"/><use xlink:href="#12" y="8.684"/><use xlink:href="#13" y="10.855"/><use xlink:href="#14" y="13.026"/><use xlink:href="#8" y="15.197"/><use xlink:href="#9" y="17.368"/><use xlink:href="#10" y="19.539"/><use xlink:href="#11" y="21.71"/></svg><svg x="4960"><use xlink:href="#a"/><use xlink:href="#b" x="-.004" y="23.856"/><use xlink:href="#8"/><use xlink:href="#9" y="2.171"/><use xlink:href="#10" y="4.342"/><use xlink:href="#11" y="6.513"/><use xlink:href="#12" y="8.684"/><use xlink:href="#13" y="10.855"/><use xlink:href="#14" y="13.026"/><use xlink:href="#8" y="15.197"/><use xlink:href="#9" y="17.368"/><use xlink:href="#10" y="19.539"/><use xlink:href="#11" y="21.71"/></svg><svg x="5040"><use xlink:href="#a"/><use xlink:href="#b" x="1.996" y="23.856"/><use xlink:href="#8"/><use xlink:href="#9" y="2.171"/><use xlink:href="#10" y="4.342"/><use xlink:href="#11" y="6.513"/><use xlink:href="#12" y="8.684"/><use xlink:href="#13" y="10.855"/><use xlink:href="#14" y="13.026"/><use xlink:href="#8" y="15.197"/><use xlink:href="#9" y="17.368"/><use xlink:href="#10" y="19.539"/><use xlink:href="#11" y="21.71"/><use xlink:href="#1" y="23.881"/></svg><svg x="5120"><use xlink:href="#a"/><use xlink:href="#b" x="1.996" y="23.856"/><use xlink:href="#8"/><use xlink:href="#9" y="2.171"/><use xlink:href="#10" y="4.342"/><use xlink:href="#11" y="6.513"/><use xlink:href="#12" y="8.684"/><use xlink:href="#13" y="10.855"/><use xlink:href="#14" y="13.026"/><use xlink:href="#8" y="15.197"/><use xlink:href="#9" y="17.368"/><use xlink:href="#10" y="19.539"/><use xlink:href="#11" y="21.71"/><use xlink:href="#1" y="23.881"/></svg></svg></g></g></svg></svg>